# xmcd
#
# Track frame offsets:
#	150
#	11977
#	28920
#	54670
#	66097
#	82530
#	102512
#	115190
#	128762
#	139945
#	155580
#	167285
#
# Disc length: 2431 seconds
#
# Revision: 0
# Processed by: cddbd v1.4PL0 Copyright (c) Steve Scherf et al.
# Submitted via: EasyCDDAExtractor 5.0.4.1
#
DISCID=9a097d0c
DTITLE=Adair, Tina - Just You Wait and See
DYEAR=1997
DGENRE=Country
TTITLE0=Midst Of The Morning Rain
TTITLE1=Just Me
TTITLE2=Pray With mama and Daddy
TTITLE3=Another Heartache
TTITLE4=By The Time It Gets Dark
TTITLE5=Arrow
TTITLE6=Crazy Love
TTITLE7=Nobody But You
TTITLE8=When My Time Comes To Go
TTITLE9=These Tears
TTITLE10=How Many Roads
TTITLE11=Some People's Lives
EXTD=
EXTT0=
EXTT1=
EXTT2=
EXTT3=
EXTT4=
EXTT5=
EXTT6=
EXTT7=
EXTT8=
EXTT9=
EXTT10=
EXTT11=
PLAYORDER=
